<svg class="main-svg" xmlns="http://www.w3.org/2000/svg" xmlns:xlink="http://www.w3.org/1999/xlink" width="900" height="600" style="" viewBox="0 0 900 600"><rect x="0" y="0" width="900" height="600" style="fill: rgb(255, 255, 255); fill-opacity: 1;"/><defs id="defs-bd306d"><g class="clips"><clipPath id="clipbd306dxyplot" class="plotclip"><rect width="740" height="420"/></clipPath><clipPath class="axesclip" id="clipbd306dx"><rect x="80" y="0" width="740" height="600"/></clipPath><clipPath class="axesclip" id="clipbd306dy"><rect x="0" y="100" width="900" height="420"/></clipPath><clipPath class="axesclip" id="clipbd306dxy"><rect x="80" y="100" width="740" height="420"/></clipPath></g><g class="gradients"/><g class="patterns"/></defs><g class="bglayer"/><g class="layer-below"><g class="imagelayer"/><g class="shapelayer"/></g><g class="cartesianlayer"><g class="subplot xy"><g class="layer-subplot"><g class="shapelayer"/><g class="imagelayer"/></g><g class="gridlayer"><g class="x"><path class="xgrid crisp" transform="translate(171.35,0)" d="M0,100v420" style="stroke: rgb(235, 240, 248); stroke-opacity: 1; stroke-width: 1px;"/><path class="xgrid crisp" transform="translate(264.74,0)" d="M0,100v420" style="stroke: rgb(235, 240, 248); stroke-opacity: 1; stroke-width: 1px;"/><path class="xgrid crisp" transform="translate(359.17,0)" d="M0,100v420" style="stroke: rgb(235, 240, 248); stroke-opacity: 1; stroke-width: 1px;"/><path class="xgrid crisp" transform="translate(453.59,0)" d="M0,100v420" style="stroke: rgb(235, 240, 248); stroke-opacity: 1; stroke-width: 1px;"/><path class="xgrid crisp" transform="translate(545.96,0)" d="M0,100v420" style="stroke: rgb(235, 240, 248); stroke-opacity: 1; stroke-width: 1px;"/><path class="xgrid crisp" transform="translate(639.36,0)" d="M0,100v420" style="stroke: rgb(235, 240, 248); stroke-opacity: 1; stroke-width: 1px;"/><path class="xgrid crisp" transform="translate(733.79,0)" d="M0,100v420" style="stroke: rgb(235, 240, 248); stroke-opacity: 1; stroke-width: 1px;"/></g><g class="y"><path class="ygrid crisp" transform="translate(0,462.07)" d="M80,0h740" style="stroke: rgb(235, 240, 248); stroke-opacity: 1; stroke-width: 1px;"/><path class="ygrid crisp" transform="translate(0,389.66)" d="M80,0h740" style="stroke: rgb(235, 240, 248); stroke-opacity: 1; stroke-width: 1px;"/><path class="ygrid crisp" transform="translate(0,317.24)" d="M80,0h740" style="stroke: rgb(235, 240, 248); stroke-opacity: 1; stroke-width: 1px;"/><path class="ygrid crisp" transform="translate(0,244.83)" d="M80,0h740" style="stroke: rgb(235, 240, 248); stroke-opacity: 1; stroke-width: 1px;"/><path class="ygrid crisp" transform="translate(0,172.41)" d="M80,0h740" style="stroke: rgb(235, 240, 248); stroke-opacity: 1; stroke-width: 1px;"/></g></g><g class="zerolinelayer"/><path class="xlines-below"/><path class="ylines-below"/><g class="overlines-below"/><g class="xaxislayer-below"/><g class="yaxislayer-below"/><g class="overaxes-below"/><g class="plot" transform="translate(80,100)" clip-path="url(#clipbd306dxyplot)"><g class="scatterlayer mlayer"><g class="trace scatter trace99b7fd" style="stroke-miterlimit: 2; opacity: 1;"><g class="fills"/><g class="errorbars"/><g class="lines"><path class="js-line" d="M21.55,199.74L50.29,167.81L57.48,172.69L64.66,180.06L71.84,196.81L79.03,202.84L86.21,190.84L114.95,126.24L122.14,117.22L129.32,103.18L136.5,98.33L150.87,99.08L158.06,106.45L172.43,100.53L179.61,92.31L186.8,81.17L193.98,75.55L201.17,73.18L208.35,68.42L222.72,67.38L229.9,65.62L237.09,68.15L244.27,54.84L251.46,48.64L258.64,49.49L265.83,51.52L273.01,59.65L280.19,57.22L287.38,60.1L294.56,59.04L301.75,65.72L316.12,105.11L323.3,119.72L330.49,120.17L337.67,113.54L352.04,81.27L359.22,79.85L373.59,72.39L380.78,79.37L387.96,79.15L395.15,80.69L402.33,83.26L409.51,83.24L416.7,81.3L423.88,84.83L431.07,94.96L438.25,99.98L445.44,103.66L452.62,101.79L466.99,95.26L474.17,97.78L481.36,101.67L488.54,107.47L495.73,110.91L502.91,121.93L510.1,129.83L517.28,140.37L524.47,143.9L531.65,138.72L538.83,130.52L546.02,124.96L560.39,112.39L567.57,119.84L574.76,121.25L581.94,129.95L589.13,136.53L596.31,130.76L603.5,122.06L610.68,125.23L617.86,120.11L625.05,121.03L632.23,123.42L639.42,123L646.6,130.42L653.79,134.07L660.97,139.24L668.16,141L682.52,141.55L689.71,136.61L696.89,130.53L704.08,128.32L711.26,122.8L718.45,130.97L725.63,133.45L732.82,140.17L740,141.34" style="vector-effect: non-scaling-stroke; fill: none; stroke: rgb(99, 110, 250); stroke-opacity: 1; stroke-width: 6px; opacity: 1;"/></g><g class="points"/><g class="text"/></g><g class="trace scatter traced4975b" style="stroke-miterlimit: 2; opacity: 1;"><g class="fills"/><g class="errorbars"/><g class="lines"><path class="js-line" d="M21.55,345.36L35.92,345.4L43.11,348.49L50.29,350.34L57.48,355.56L64.66,357.34L71.84,366.34L79.03,373.05L86.21,375.01L93.4,373.3L100.58,364.47L114.95,359.91L122.14,361.83L129.32,362.34L136.5,359.19L150.87,360.34L158.06,364.17L179.61,364.11L186.8,366.39L201.17,376.22L208.35,378.9L215.53,375.97L222.72,375.59L229.9,371.84L237.09,372.54L244.27,375.89L251.46,377.06L258.64,378.08L265.83,377.18L273.01,374.81L280.19,374.1L301.75,372.76L308.93,371.18L323.3,371.13L330.49,374.03L337.67,375.27L344.85,374.71L352.04,375.59L359.22,375L366.41,371.63L373.59,371.15L380.78,371.05L387.96,369.86L402.33,371.68L409.51,370.7L416.7,369.09L423.88,369.59L438.25,364.95L445.44,364.85L452.62,364.36L459.81,362.78L466.99,364.9L474.17,363.82L481.36,363.5L488.54,364.81L495.73,364.27L502.91,364.78L510.1,363.27L517.28,365.57L531.65,360.54L538.83,358.43L546.02,353.3L553.2,352.37L581.94,349.98L589.13,352.46L596.31,355.24L603.5,355.55L610.68,356.34L617.86,353.96L625.05,352L632.23,352.27L639.42,352.65L646.6,352.2L653.79,350.96L660.97,351.41L675.34,352.22L682.52,354.87L689.71,356.38L696.89,356.73L704.08,358.74L711.26,357.62L718.45,358.41L725.63,359.98L740,360.83" style="vector-effect: non-scaling-stroke; fill: none; stroke: rgb(239, 85, 59); stroke-opacity: 1; stroke-width: 2px; opacity: 1;"/></g><g class="points"/><g class="text"/></g><g class="trace scatter tracef8647f" style="stroke-miterlimit: 2; opacity: 1;"><g class="fills"/><g class="errorbars"/><g class="lines"><path class="js-line" d="M21.55,179.03L35.92,195.63L43.11,201.24L50.29,205.98L57.48,195.89L64.66,186.74L71.84,160.98L79.03,148.25L86.21,158.29L93.4,176.21L100.58,203.5L107.77,219.06L114.95,237.99L122.14,245.09L129.32,258.62L136.5,266.62L143.69,266.52L150.87,264.72L158.06,253.52L172.43,259.41L179.61,267.72L186.8,276.58L193.98,277.4L201.17,274.74L208.35,276.81L215.53,279.91L222.72,281.17L229.9,286.67L237.09,283.46L244.27,293.41L251.46,298.44L265.83,295.44L273.01,289.68L280.19,292.83L287.38,290.24L294.56,291.35L301.75,285.66L308.93,265.24L316.12,247.64L323.3,233.29L330.49,229.93L337.67,235.33L344.85,252.48L352.04,267.28L359.22,269.29L366.41,276.34L373.59,280.6L380.78,273.72L387.96,275.13L395.15,272.77L402.33,269.2L409.51,270.19L416.7,273.75L423.88,269.72L431.07,261.94L438.25,259.21L445.44,255.62L452.62,257.99L459.81,263.35L466.99,263.98L474.17,262.54L481.36,258.97L488.54,251.86L495.73,248.97L502.91,237.43L510.1,231.04L517.28,218.2L524.47,217.5L531.65,224.88L546.02,245.88L553.2,253.82L560.39,260.07L567.57,252.88L574.76,252.2L581.94,244.2L589.13,235.15L596.31,238.13L603.5,246.53L610.68,242.57L617.86,250.07L625.05,251.11L632.23,248.45L639.42,248.5L646.6,241.51L653.79,239.11L660.97,233.48L668.16,231.36L675.34,231.16L682.52,227.71L689.71,231.15L696.89,236.88L704.08,237.08L711.26,243.72L718.45,234.76L725.63,230.7L732.82,223.37L740,221.97" style="vector-effect: non-scaling-stroke; fill: none; stroke: rgb(0, 204, 150); stroke-opacity: 1; stroke-width: 2px; opacity: 1;"/></g><g class="points"/><g class="text"/></g></g></g><g class="overplot"/><path class="xlines-above crisp" d="M0,0" style="fill: none;"/><path class="ylines-above crisp" d="M0,0" style="fill: none;"/><g class="overlines-above"/><g class="xaxislayer-above"><g class="xtick"><text text-anchor="middle" x="0" y="536" transform="translate(171.35,0)" style="font-family: 'Open Sans', verdana, arial, sans-serif; font-size: 15px; fill: rgb(42, 63, 95); fill-opacity: 1; white-space: pre; opacity: 1;">Apr 2020</text></g><g class="xtick"><text text-anchor="middle" x="0" y="536" style="font-family: 'Open Sans', verdana, arial, sans-serif; font-size: 15px; fill: rgb(42, 63, 95); fill-opacity: 1; white-space: pre; opacity: 1;" transform="translate(264.74,0)">Jul 2020</text></g><g class="xtick"><text text-anchor="middle" x="0" y="536" style="font-family: 'Open Sans', verdana, arial, sans-serif; font-size: 15px; fill: rgb(42, 63, 95); fill-opacity: 1; white-space: pre; opacity: 1;" transform="translate(359.17,0)">Oct 2020</text></g><g class="xtick"><text text-anchor="middle" x="0" y="536" style="font-family: 'Open Sans', verdana, arial, sans-serif; font-size: 15px; fill: rgb(42, 63, 95); fill-opacity: 1; white-space: pre; opacity: 1;" transform="translate(453.59,0)">Jan 2021</text></g><g class="xtick"><text text-anchor="middle" x="0" y="536" style="font-family: 'Open Sans', verdana, arial, sans-serif; font-size: 15px; fill: rgb(42, 63, 95); fill-opacity: 1; white-space: pre; opacity: 1;" transform="translate(545.96,0)">Apr 2021</text></g><g class="xtick"><text text-anchor="middle" x="0" y="536" style="font-family: 'Open Sans', verdana, arial, sans-serif; font-size: 15px; fill: rgb(42, 63, 95); fill-opacity: 1; white-space: pre; opacity: 1;" transform="translate(639.36,0)">Jul 2021</text></g><g class="xtick"><text text-anchor="middle" x="0" y="536" style="font-family: 'Open Sans', verdana, arial, sans-serif; font-size: 15px; fill: rgb(42, 63, 95); fill-opacity: 1; white-space: pre; opacity: 1;" transform="translate(733.79,0)">Oct 2021</text></g></g><g class="yaxislayer-above"><g class="ytick"><text text-anchor="end" x="79" y="5.25" transform="translate(0,462.07)" style="font-family: 'Open Sans', verdana, arial, sans-serif; font-size: 15px; fill: rgb(42, 63, 95); fill-opacity: 1; white-space: pre; opacity: 1;">0.25</text></g><g class="ytick"><text text-anchor="end" x="79" y="5.25" style="font-family: 'Open Sans', verdana, arial, sans-serif; font-size: 15px; fill: rgb(42, 63, 95); fill-opacity: 1; white-space: pre; opacity: 1;" transform="translate(0,389.66)">0.3</text></g><g class="ytick"><text text-anchor="end" x="79" y="5.25" style="font-family: 'Open Sans', verdana, arial, sans-serif; font-size: 15px; fill: rgb(42, 63, 95); fill-opacity: 1; white-space: pre; opacity: 1;" transform="translate(0,317.24)">0.35</text></g><g class="ytick"><text text-anchor="end" x="79" y="5.25" style="font-family: 'Open Sans', verdana, arial, sans-serif; font-size: 15px; fill: rgb(42, 63, 95); fill-opacity: 1; white-space: pre; opacity: 1;" transform="translate(0,244.83)">0.4</text></g><g class="ytick"><text text-anchor="end" x="79" y="5.25" style="font-family: 'Open Sans', verdana, arial, sans-serif; font-size: 15px; fill: rgb(42, 63, 95); fill-opacity: 1; white-space: pre; opacity: 1;" transform="translate(0,172.41)">0.45</text></g><g class="ytick"><text text-anchor="end" x="79" y="5.25" style="font-family: 'Open Sans', verdana, arial, sans-serif; font-size: 15px; fill: rgb(42, 63, 95); fill-opacity: 1; white-space: pre; opacity: 1;" transform="translate(0,100)">0.5</text></g></g><g class="overaxes-above"/></g></g><g class="polarlayer"/><g class="smithlayer"/><g class="ternarylayer"/><g class="geolayer"/><g class="funnelarealayer"/><g class="pielayer"/><g class="iciclelayer"/><g class="treemaplayer"/><g class="sunburstlayer"/><g class="glimages"/><defs id="topdefs-bd306d"><g class="clips"/><clipPath id="legendbd306d"><rect width="151" height="98" x="0" y="0"/></clipPath></defs><g class="layer-above"><g class="imagelayer"/><g class="shapelayer"/></g><g class="infolayer"><g class="legend" pointer-events="all" transform="translate(672,104.2)"><rect class="bg" shape-rendering="crispEdges" width="151" height="98" x="0" y="0" style="stroke: rgb(68, 68, 68); stroke-opacity: 1; fill: rgb(255, 255, 255); fill-opacity: 1; stroke-width: 0px;"/><g class="scrollbox" transform="" clip-path="url(#legendbd306d)"><g class="groups" transform=""><g class="traces" transform="translate(0,16.25)" style="opacity: 1;"><text class="legendtext" text-anchor="start" x="40" y="5.85" style="font-family: 'Open Sans', verdana, arial, sans-serif; font-size: 15px; fill: rgb(42, 63, 95); fill-opacity: 1; white-space: pre;">CUST (1-10)</text><g class="layers" style="opacity: 1;"><g class="legendfill"/><g class="legendlines"><path class="js-line" d="M5,0h30" style="fill: none; stroke: rgb(99, 110, 250); stroke-opacity: 1; stroke-width: 6px;"/></g><g class="legendsymbols"><g class="legendpoints"/></g></g><rect class="legendtoggle" x="0" y="-11.25" width="145.765625" height="22.5" style="fill: rgb(0, 0, 0); fill-opacity: 0;"/></g></g><g class="groups" transform="translate(0,10)"><g class="traces" transform="translate(0,38.75)" style="opacity: 1;"><text class="legendtext" text-anchor="start" x="40" y="5.85" style="font-family: 'Open Sans', verdana, arial, sans-serif; font-size: 15px; fill: rgb(42, 63, 95); fill-opacity: 1; white-space: pre;">CUST (11-49)</text><g class="layers" style="opacity: 1;"><g class="legendfill"/><g class="legendlines"><path class="js-line" d="M5,0h30" style="fill: none; stroke: rgb(239, 85, 59); stroke-opacity: 1; stroke-width: 2px;"/></g><g class="legendsymbols"><g class="legendpoints"/></g></g><rect class="legendtoggle" x="0" y="-11.25" width="145.765625" height="22.5" style="fill: rgb(0, 0, 0); fill-opacity: 0;"/></g></g><g class="groups" transform="translate(0,20)"><g class="traces" transform="translate(0,61.25)" style="opacity: 1;"><text class="legendtext" text-anchor="start" x="40" y="5.85" style="font-family: 'Open Sans', verdana, arial, sans-serif; font-size: 15px; fill: rgb(42, 63, 95); fill-opacity: 1; white-space: pre;">CUST (50-UP)</text><g class="layers" style="opacity: 1;"><g class="legendfill"/><g class="legendlines"><path class="js-line" d="M5,0h30" style="fill: none; stroke: rgb(0, 204, 150); stroke-opacity: 1; stroke-width: 2px;"/></g><g class="legendsymbols"><g class="legendpoints"/></g></g><rect class="legendtoggle" x="0" y="-11.25" width="145.765625" height="22.5" style="fill: rgb(0, 0, 0); fill-opacity: 0;"/></g></g></g><rect class="scrollbar" rx="20" ry="3" width="0" height="0" x="0" y="0" style="fill: rgb(128, 139, 164); fill-opacity: 1;"/></g><g class="g-gtitle"><text class="gtitle" x="45" y="50" text-anchor="start" dy="0em" style="font-family: 'Open Sans', verdana, arial, sans-serif; font-size: 21px; fill: rgb(42, 63, 95); opacity: 1; font-weight: normal; white-space: pre;">Custome weekly call volume (% of total volume)</text></g><g class="g-xtitle"/><g class="g-ytitle"/></g></svg>